<svg width="26" height="26" viewBox="0 0 26 26" fill="none" xmlns="http://www.w3.org/2000/svg">
<path d="M20.3125 16.2499C20.3125 20.7374 17.4875 23.5624 13 23.5624C8.51246 23.5624 5.6875 20.7374 5.6875 16.2499C5.6875 11.4343 10.9296 4.9333 12.5374 3.05288C12.5946 2.98606 12.6656 2.93243 12.7455 2.89566C12.8254 2.85888 12.9123 2.83984 13.0003 2.83984C13.0882 2.83984 13.1751 2.85888 13.255 2.89566C13.3349 2.93243 13.4059 2.98606 13.4631 3.05288C15.0704 4.9333 20.3125 11.4343 20.3125 16.2499Z" fill="#CEF2FF" stroke="#15A4D0" stroke-miterlimit="10"/>
<path d="M17.4688 16.6562C17.4688 17.6259 17.0835 18.5559 16.3979 19.2416C15.7122 19.9273 14.7822 20.3125 13.8125 20.3125" stroke="#15A4D0" stroke-linecap="round" stroke-linejoin="round"/>
</svg>
