<?xml version="1.0" encoding="UTF-8"?>
<svg id="Layer_1" data-name="Layer 1" xmlns="http://www.w3.org/2000/svg" xmlns:xlink="http://www.w3.org/1999/xlink" viewBox="0 0 3456 1728">
  <defs>
    <style>
      .cls-1 {
        fill: #00ddd2;
      }

      .cls-2 {
        fill: url(#linear-gradient-2);
      }

      .cls-3 {
        fill: #221d57;
      }

      .cls-4 {
        fill: #886cff;
      }

      .cls-5 {
        fill: url(#linear-gradient);
      }
    </style>
    <linearGradient id="linear-gradient" x1="495.42" y1="641.84" x2="621.6" y2="769.26" gradientUnits="userSpaceOnUse">
      <stop offset="0" stop-color="#00ddd2"/>
      <stop offset="1" stop-color="#18313a"/>
    </linearGradient>
    <linearGradient id="linear-gradient-2" x1="673.63" y1="1062.11" x2="603.8" y2="991.05" gradientUnits="userSpaceOnUse">
      <stop offset="0" stop-color="#886cff"/>
      <stop offset="1" stop-color="#2d2652"/>
    </linearGradient>
  </defs>
  <g>
    <path class="cls-3" d="M1078.61,888.4l196.31-150.81h84.75l-167.9,128.98,182.05,139.54h-84.89l-139.54-107.04-70.72,54.36v52.6h-51.61v-268.44h51.61l-.06,150.81Z"/>
    <path class="cls-3" d="M1567.24,781.46l-129.69,224.65h-59.64l155.02-268.5h68.62l155.02,268.5h-59.62l-129.71-224.65Z"/>
    <path class="cls-3" d="M2095.23,1006.07l-75.98-82.63h-184.89v82.63h-51.61v-134.26h268.16c75.14,0,75.14-82.61,0-82.61h-268.2v-51.61h268.2c130.76,0,142.31,154.43,34.69,181.76l79.76,86.76-70.13-.04Z"/>
    <path class="cls-3" d="M2205.76,1006.11v-268.5h51.63v268.5h-51.63Z"/>
    <path class="cls-3" d="M2573.23,737.63c59.81.18,108.26,48.62,108.44,108.44v51.61c-.18,59.81-48.62,108.26-108.44,108.44h-160.06c-59.81-.18-108.26-48.62-108.44-108.44v-51.61c.18-59.81,48.62-108.26,108.44-108.44h160.06ZM2630.04,897.71v-51.61c-.09-31.33-25.48-56.71-56.81-56.79h-160.06c-31.32.09-56.69,25.46-56.79,56.79v51.61c.09,31.33,25.46,56.7,56.79,56.79h160.06c31.33-.08,56.71-25.46,56.81-56.79Z"/>
    <path class="cls-3" d="M3016.57,846.03c43.72.68,78.81,36.31,78.81,80.04s-35.09,79.37-78.81,80.04h-296.9v-51.61h296.9c10.32.27,19.97-5.08,25.21-13.98,5.24-8.89,5.24-19.93,0-28.83s-14.89-14.25-25.21-13.98h-216.87c-43.72-.68-78.81-36.31-78.81-80.04s35.09-79.37,78.81-80.04h296.9v51.61h-296.9c-10.32-.27-19.97,5.08-25.21,13.98s-5.24,19.93,0,28.83c5.24,8.9,14.89,14.25,25.21,13.98h216.87Z"/>
  </g>
  <g>
    <polygon class="cls-5" points="359.4 756.38 473.46 870.44 529.82 870.44 536.26 864 408.36 736.1 408.36 549.58 605.01 549.58 605.01 500.63 359.4 500.63 359.4 756.38"/>
    <polygon class="cls-2" points="850.62 971.62 708.38 829.38 673.76 864 801.67 991.9 801.67 1178.42 580.02 1178.42 570.12 1227.37 850.62 1227.37 850.62 971.62"/>
    <rect class="cls-3" x="582.99" y="843.04" width="44.03" height="44.03" transform="translate(-434.48 681.18) rotate(-45)"/>
    <path class="cls-4" d="M408.36,1178.42v-186.52l196.66-196.65,49.32,49.32,34.62-34.62-83.94-83.94-245.61,245.6v255.75h285.98s3.1-24.53,6.14-48.95h-243.18Z"/>
    <path class="cls-1" d="M536.9,549.58h264.76v186.51l-196.66,196.66-49.32-49.32-34.62,34.62,83.94,83.94,245.61-245.61v-255.75h-306.35c-2.48,15.39-4.99,32.19-7.37,48.95Z"/>
  </g>
</svg>