<?xml version="1.0" encoding="UTF-8"?>
<svg id="Layer_1" data-name="Layer 1" xmlns="http://www.w3.org/2000/svg" version="1.1" viewBox="0 0 59.1 62.2">
  <defs>
    <style>
      .cls-1 {
        fill: #3ca6f2;
      }

      .cls-1, .cls-2 {
        stroke-width: 0px;
      }

      .cls-2 {
        fill: #57e20e;
      }
    </style>
  </defs>
  <path class="cls-1" d="M47.7,52.7l-23.3-18c-1.7-1.3-1.7-4,0-5.3l23.3-18h5.7l-26.2,20.2c-.3.2-.3.6,0,.8l26.2,20.2h-5.7Z"/>
  <path class="cls-1" d="M27.8,40.1l3.3,4.8c.4.6.5,1.3.2,1.9s-.9,1-1.7,1H13c-.7,0-1.3-.4-1.7-1s-.3-1.4,0-2l7-10.2c1.2-1.8,1.2-4.1,0-5.9l-7.1-10.4c-.4-.6-.4-1.3,0-2s1-1,1.7-1h16.6c.7,0,1.3.4,1.7,1s.3,1.4,0,2l-3.8,5.5,6-4.9c1.2-1,1.6-2.6.9-4s0-.2-.2-.3c-.9-1.7-2.7-2.6-4.6-2.6H13c-1.8,0-3.6.9-4.6,2.5s-1,4,.1,5.6l7.1,10.4c.4.6.4,1.5,0,2.1l-7,10.1c-1.1,1.5-1.3,3.5-.5,5.2.8,1.7,2.7,3.1,4.7,3.1h16.6c1.9,0,3.7-1,4.6-2.6s0,0,0,0c.8-1.4.4-3.2-.9-4.2l-5.4-4.2h.1Z"/>
  <path class="cls-2" d="M30.2,44.9c-.6-1-1.1-2.3-2.5-2.4-.7,0-1.3.2-2,.3-1,.3-1.9,0-2.8-.5-1.2-.8-1.4-4.6-1.4-4.6,0-.2-.4-.2-.5,0,0,0-.1,3.6-1.2,4.5-2.1,1.8-3.7-.8-5.9.5-.1,0-.2.2-.3.3l-1.2,1.8c-.2.3-.2.6-.1,1,.1.3.4.7,1.2.7h15.8c.4,0,.8-.2,1-.6.2-.4.2-.8,0-1.2v.2Z"/>
  <path class="cls-2" d="M17.4,24.9c.2.3.5.6.7.9.4.6.9,1.2,1.3,1.8.8,1.1,1.5,3.2,2,4.6s.3.2.3,0c.5-.9.8-1.9,1.2-2.9s.8-1.9,1.4-2.7c.6-.8.9-1.2,1.5-1.6,0,0-.3-.2-.4-.2-.3,0-.7,0-1,0-.9.2-1.4,1.1-2.2,1.3-1.6.5-2.6-1.5-3.9-2-.2,0-.5-.2-.7,0-.4,0-.4.6-.2.9h0Z"/>
</svg>