<svg width="89" height="62" viewBox="0 0 89 62" fill="none" xmlns="http://www.w3.org/2000/svg">
<path d="M5.53717 53.4071H29.6217C27.4428 52.0672 25.4747 50.4392 23.7175 48.5229C21.9633 46.6097 20.5499 44.4656 19.4772 42.0906H5.53717V53.4071ZM44.5015 53.4071C50.8428 53.4071 56.2489 51.1996 60.7199 46.7847C65.1908 42.3697 67.4248 37.0329 67.4217 30.7741C67.4187 24.5153 65.1832 19.1784 60.7153 14.7634C56.2474 10.3485 50.8428 8.14101 44.5015 8.14101C38.1603 8.14101 32.7557 10.3485 28.2878 14.7634C23.8199 19.1784 21.5844 24.5153 21.5813 30.7741C21.5783 37.0329 23.8137 42.3712 28.2878 46.7892C32.7618 51.2072 38.1664 53.4132 44.5015 53.4071ZM69.5304 19.4575H83.4659V8.14101H59.3813C61.5633 9.48088 63.5314 11.109 65.2856 13.0252C67.0397 14.9385 68.4547 17.0826 69.5304 19.4575ZM0.953125 61.4192V34.0785H5.53717V37.564H17.9599C17.6299 36.4625 17.3869 35.3505 17.2311 34.2279C17.0752 33.1053 16.9973 31.954 16.9973 30.7741C16.9973 23.2086 19.6667 16.7914 25.0056 11.5224C30.3414 6.25039 36.8401 3.6144 44.5015 3.6144H83.4659V0.128906H88.0499V27.4696H83.4659V23.9841H71.0431C71.3732 25.0886 71.6161 26.2022 71.772 27.3248C71.9278 28.4474 72.0058 29.5971 72.0058 30.7741C72.0058 38.3395 69.3363 44.7583 63.9974 50.0303C58.6616 55.2992 52.163 57.9337 44.5015 57.9337H5.53717V61.4192H0.953125Z" fill="#347994"/>
</svg>
