<svg width="74" height="46" viewBox="0 0 74 46" fill="none" xmlns="http://www.w3.org/2000/svg">
<path d="M36.9996 45.5196C24.5817 45.5196 14.48 35.418 14.48 23C14.48 10.5821 24.5817 0.480469 36.9996 0.480469C49.4175 0.480469 59.5192 10.5821 59.5192 23C59.5192 35.418 49.4175 45.5196 36.9996 45.5196ZM36.9996 3.2066C33.0848 3.2066 29.258 4.36747 26.003 6.5424C22.7479 8.71733 20.211 11.8086 18.7129 15.4254C17.2147 19.0422 16.8228 23.022 17.5865 26.8615C18.3502 30.7011 20.2354 34.228 23.0035 36.9961C25.7717 39.7643 29.2985 41.6494 33.1381 42.4132C36.9776 43.1769 40.9574 42.7849 44.5742 41.2868C48.191 39.7887 51.2823 37.2517 53.4572 33.9967C55.6322 30.7417 56.793 26.9148 56.793 23C56.7859 17.7527 54.6983 12.7223 50.9878 9.01182C47.2774 5.30137 42.247 3.21371 36.9996 3.2066ZM71.7574 13.7853H62.0757C61.8926 13.7917 61.7102 13.7612 61.5392 13.6956C61.3682 13.63 61.2122 13.5306 61.0804 13.4034C60.9487 13.2762 60.8439 13.1238 60.7723 12.9552C60.7008 12.7866 60.6639 12.6053 60.6639 12.4222C60.6639 12.2391 60.7008 12.0578 60.7723 11.8892C60.8439 11.7207 60.9487 11.5682 61.0804 11.441C61.2122 11.3138 61.3682 11.2144 61.5392 11.1488C61.7102 11.0832 61.8926 11.0527 62.0757 11.0591H71.7574C72.1106 11.0715 72.4452 11.2206 72.6907 11.4748C72.9362 11.7291 73.0734 12.0688 73.0734 12.4222C73.0734 12.7757 72.9362 13.1153 72.6907 13.3696C72.4452 13.6238 72.1106 13.7729 71.7574 13.7853ZM11.9235 13.7853H2.24183C1.8886 13.7729 1.55399 13.6238 1.30849 13.3696C1.06299 13.1153 0.925781 12.7757 0.925781 12.4222C0.925781 12.0688 1.06299 11.7291 1.30849 11.4748C1.55399 11.2206 1.8886 11.0715 2.24183 11.0591H11.9235C12.1066 11.0527 12.289 11.0832 12.46 11.1488C12.631 11.2144 12.787 11.3138 12.9188 11.441C13.0505 11.5682 13.1553 11.7207 13.2269 11.8892C13.2984 12.0578 13.3353 12.2391 13.3353 12.4222C13.3353 12.6053 13.2984 12.7866 13.2269 12.9552C13.1553 13.1238 13.0505 13.2762 12.9188 13.4034C12.787 13.5306 12.631 13.63 12.46 13.6956C12.289 13.7612 12.1066 13.7917 11.9235 13.7853ZM11.9152 34.9409H2.24183C1.8886 34.9285 1.55399 34.7795 1.30849 34.5252C1.06299 34.271 0.925781 33.9313 0.925781 33.5779C0.925781 33.2244 1.06299 32.8848 1.30849 32.6305C1.55399 32.3762 1.8886 32.2272 2.24183 32.2148H11.9152C12.0982 32.2084 12.2806 32.2389 12.4516 32.3045C12.6226 32.3701 12.7786 32.4695 12.9104 32.5967C13.0421 32.7239 13.1469 32.8763 13.2185 33.0449C13.29 33.2135 13.3269 33.3947 13.3269 33.5779C13.3269 33.761 13.29 33.9423 13.2185 34.1109C13.1469 34.2794 13.0421 34.4319 12.9104 34.5591C12.7786 34.6863 12.6226 34.7857 12.4516 34.8513C12.2806 34.9169 12.0982 34.9474 11.9152 34.9409ZM71.7574 34.9409H62.0757C61.8926 34.9474 61.7102 34.9169 61.5392 34.8513C61.3682 34.7857 61.2122 34.6863 61.0804 34.5591C60.9487 34.4319 60.8439 34.2794 60.7723 34.1109C60.7008 33.9423 60.6639 33.761 60.6639 33.5779C60.6639 33.3947 60.7008 33.2135 60.7723 33.0449C60.8439 32.8763 60.9487 32.7239 61.0804 32.5967C61.2122 32.4695 61.3682 32.3701 61.5392 32.3045C61.7102 32.2389 61.8926 32.2084 62.0757 32.2148H71.7574C72.1106 32.2272 72.4452 32.3762 72.6907 32.6305C72.9362 32.8848 73.0734 33.2244 73.0734 33.5779C73.0734 33.9313 72.9362 34.271 72.6907 34.5252C72.4452 34.7795 72.1106 34.9285 71.7574 34.9409Z" fill="#718EBF"/>
</svg>
