<svg width="86" height="30" viewBox="0 0 86 30" fill="none" xmlns="http://www.w3.org/2000/svg">
<path d="M83.9024 29.9642H77.7581C77.3964 29.9642 77.0495 29.8205 76.7937 29.5647C76.5379 29.309 76.3942 28.9621 76.3942 28.6003V1.39442C76.3942 1.03269 76.5379 0.685776 76.7937 0.429994C77.0495 0.174212 77.3964 0.0305176 77.7581 0.0305176H83.9024C84.2642 0.0305176 84.6111 0.174212 84.8669 0.429994C85.1226 0.685776 85.2663 1.03269 85.2663 1.39442V28.6054C85.265 28.9662 85.1207 29.3118 84.8651 29.5665C84.6094 29.8212 84.2633 29.9642 83.9024 29.9642ZM79.1136 27.2364H82.5402V2.76337H79.1136V27.2364ZM8.24258 29.9642H2.09828C1.73742 29.9642 1.39127 29.8212 1.13563 29.5665C0.879993 29.3118 0.735708 28.9662 0.734375 28.6054V1.39442C0.734375 1.03269 0.878072 0.685776 1.13385 0.429994C1.38964 0.174212 1.73655 0.0305176 2.09828 0.0305176H8.24258C8.60431 0.0305176 8.95122 0.174212 9.20701 0.429994C9.46279 0.685776 9.60648 1.03269 9.60648 1.39442V28.6054C9.60515 28.9662 9.46087 29.3118 9.20523 29.5665C8.94959 29.8212 8.60344 29.9642 8.24258 29.9642ZM3.46051 27.2364H6.88707V2.76337H3.46051V27.2364Z" fill="#718EBF"/>
</svg>
